# xmcd CD database file
#
# Track frame offsets:
#	150
#	19295
#	39505
#	61447
#	77852
#	95977
#	118722
#	136330
#	160210
#	180587
#	204812
#	223567
#	243387
#	256435
#
# Disc length: 3638 seconds
#
# Revision: 0
# Processed by: cddbd v1.5PL3 Copyright (c) Steve Scherf et al.
# Submitted via: CDex 1.51
#
DISCID=c60e340e
DTITLE=Mino Kabasawa - Piano Pure Memories of 2003
DYEAR=2003
DGENRE=Classical
TTITLE0=もらい泣き(一青窈)
TTITLE1=さくら(独唱)(森山直太郎)
TTITLE2=千の夜と千の昼(元ちとせ)
TTITLE3=Voyage(浜崎あゆみ)
TTITLE4=Always(光永亮太)
TTITLE5=月のしずく(RUI)
TTITLE6=UNSPEAKABLE(EveryLittleThing)
TTITLE7=COLORS(宇多田ヒカル)
TTITLE8=佐賀県(はなわ)
TTITLE9=Ring 〜大きな古時計〜 LIFE is...(平井堅)
TTITLE10=元気をだして(島谷ひとみ)
TTITLE11=最初から今まで 〜「冬のソナタ」より(リュウ)
TTITLE12=地上の星(中島みゆき)
TTITLE13=世界に一つだけの花(SMAP)
EXTD=YEAR: 2003
EXTT0=
EXTT1=
EXTT2=
EXTT3=
EXTT4=
EXTT5=
EXTT6=
EXTT7=
EXTT8=
EXTT9=
EXTT10=
EXTT11=
EXTT12=
EXTT13=
PLAYORDER=
